<?xml version="1.0" encoding="utf-8"?>
<!-- Generator: Adobe Illustrator 19.0.0, SVG Export Plug-In . SVG Version: 6.00 Build 0)  -->
<svg version="1.1" id="Layer_1" xmlns="http://www.w3.org/2000/svg" xmlns:xlink="http://www.w3.org/1999/xlink" x="0px" y="0px"
	 viewBox="0 0 96 96" style="enable-background:new 0 0 96 96;" xml:space="preserve">
<style type="text/css">
	.st0{fill:#16A085;}
	.st1{fill:#ECF0F1;}
	.st2{fill:#BDC3C7;}
	.st3{fill:#1ABC9C;}
</style>
<g id="XMLID_1_">
	<path id="XMLID_3_" class="st0" d="M21.4,36.2v5.9v3v8.9v3v14.8v3c0,3.3,2.6,5.9,5.9,5.9h41.4c3.3,0,5.9-2.6,5.9-5.9v-3V56.9V45
		v-8.9H21.4z"/>
	<path id="XMLID_4_" class="st1" d="M21.4,33.2v5.9v3V51v3v14.8v3c0,3.2,2.6,5.9,5.9,5.9h41.4c3.3,0,5.9-2.7,5.9-5.9v-3V53.9V42.1
		v-8.9H21.4z"/>
	<path id="XMLID_5_" class="st2" d="M21.4,30.3v5.9v3V48v3v14.8v3c0,3.2,2.6,5.9,5.9,5.9h41.4c3.3,0,5.9-2.7,5.9-5.9v-3V51V39.1
		v-8.9H21.4z"/>
	<path id="XMLID_6_" class="st1" d="M21.4,27.3v5.9v3V45v3v14.8v3c0,3.2,2.6,5.9,5.9,5.9h41.4c3.3,0,5.9-2.7,5.9-5.9v-3V48V36.2
		v-8.9H21.4z"/>
	<path id="XMLID_7_" class="st0" d="M27.3,15.5c-3.3,0-5.9,2.6-5.9,5.9v3v11.8v5.9v3v8.9v3v14.8v3c0,3.3,2.6,5.9,5.9,5.9h5.9v-3
		h-4.4c-2.4,0-4.4-2-4.4-4.4c0-2.4,2-4.4,4.4-4.4h36.9h3c3.3,0,5.9-2.6,5.9-5.9v-3V45V33.2v-8.9v-3c0-3.3-2.6-5.9-5.9-5.9H56.9H27.3
		z"/>
	<path id="XMLID_8_" class="st3" d="M36.2,15.5v53.2h3h26.6h3c3.3,0,5.9-2.6,5.9-5.9v-3V45V33.2v-8.9v-3c0-3.3-2.6-5.9-5.9-5.9H56.9
		H39.1H36.2z"/>
</g>
</svg>
